<?xml version="1.0" encoding="utf-8"?>
<!-- Generator: Adobe Illustrator 26.5.0, SVG Export Plug-In . SVG Version: 6.00 Build 0)  -->
<svg version="1.1" id="Layer_1" xmlns="http://www.w3.org/2000/svg" xmlns:xlink="http://www.w3.org/1999/xlink" x="0px" y="0px"
	 viewBox="0 0 512 512" style="enable-background:new 0 0 512 512;" xml:space="preserve">
<style type="text/css">
	.st0{fill:#005DAA;}
	.st1{fill:#FFD200;}
	.st2{fill:#FFFFFF;}
</style>
<g id="XMLID_1_">
	<path id="XMLID_18_" class="st0" d="M450.68,449.28c0,16.92-6.97,26.74-20.48,32C377.58,501.62,315.29,512,255.98,512
		s-121.6-10.38-174.22-30.72c-13.51-5.26-20.48-15.08-20.48-32V0h389.55v449.28H450.68z"/>
	<path id="XMLID_17_" class="st1" d="M165.67,273.78c-53.9-33.71-71.68-48.64-73.24-70.68c-0.28-4.41,0.71-12.09,2.7-17.49
		l-5.12-3.41c-4.12,6.54-6.68,14.93-6.68,22.76c0,12.8,4.12,22.47,9.1,30.15c7.54,11.66,15.5,19.06,35.13,33.71
		c21.19,15.93,35.56,34.42,43.95,53.76h2.99v-22.04c28.59,16.21,53.76,31.43,66.13,58.74h2.99
		C238.91,331.38,222.84,309.48,165.67,273.78"/>
	<path class="st1" d="M414.13,359.68h-3.7c0-20.05-18.49-25.6-37.83-25.6h-60.44c1.99,9.96,2.84,21.48,1.42,32.57h-2.99
		c-5.55-45.23-31.15-67.56-66.84-91.59v20.62h-2.99c-9.53-21.19-30.29-41.24-50.06-55.32c-5.26-3.7-10.67-7.68-16.07-11.52v22.19
		h-2.99c-8.39-22.04-23.61-38.4-45.23-58.03c-23.47-21.05-32.85-33.71-38.4-48.21c-3.27-8.82-4.27-15.93-4.41-25.6
		c-0.14-17.21,8.53-32.85,19.34-38.68v8.39c-5.4,7.11-8.11,16.21-8.25,25.32c0,8.53,1.99,17.92,6.26,25.88
		c13.23,25.03,57.6,55.89,85.76,74.81c87.75,58.88,105.24,69.12,119.75,100.27c1.56,3.41,3.27,8.11,4.55,13.65
		c12.66-1.99,58.6-8.96,67.13-10.38c1.71-0.28,4.98-0.71,6.83-0.85c7.96-4.98,14.08-11.38,19.48-19.34l-33.56-2.56
		c-1.71,3.84-3.41,7.11-4.98,9.67h-2.7c1-3.41,1.71-6.83,2.42-10.1l-8.68-0.57v-1.71l9.24-1.14c1.71-9.53,2.56-18.49,2.84-26.88
		l-42.38-2.42c-0.14,4.41-0.28,8.39-0.14,12.23h-2.7c-1-4.27-1.56-8.39-2.13-12.52l-9.24-0.57v-2.84l8.82-0.43
		c-1.28-11.24-1.28-21.62-0.85-30.72l-24.75-1.14c1.14,2.13,2.42,4.41,3.27,6.83c5.4,14.93,4.12,32.43,2.28,40.53h-2.99
		c-0.43-9.39-3.56-20.76-6.54-27.73c-6.83-16.21-22.19-30.44-47.93-46.93v20.62h-2.99c-8.53-27.02-29.87-42.24-61.58-58.45
		c-26.17-13.37-34.28-29.58-32.85-54.61l8.82,5.26c2.28,23.47,20.2,36.98,39.11,36.84c11.09-0.14,21.48-1.56,31.57-3.56
		c14.51-2.99,27.88-5.4,39.11-1.42v-13.8h-8.96c-3.13,2.7-9.53,5.83-18.92,5.97c-10.38,0.14-29.87-5.83-29.87-27.59
		c0-18.92,16.07-22.04,29.01-22.04c6.97,0,18.63-0.28,22.61-0.43c2.84-0.14,5.12-0.57,6.54-1.99c1.42-1.42,1.99-2.99,2.28-4.84
		c0.43-2.42,0.43-4.69,0.43-8.82V56.6h-60.44v24.04l-22.9-8.68v-5.69h10.95v-9.53h-40.82V36.84h-13.94
		c-7.4,0-16.07,5.26-16.64,15.36c-0.57,9.67,3.84,17.92,13.8,17.92h1.85v11.66h-1.85c-17.49,0-30.58-13.08-30.58-30.58
		c0-18.2,15.5-32,34.13-32h29.58v19.91h114.77v29.44c0,4.98-0.28,11.66-0.71,15.79c-0.28,3.13-1.42,8.53-7.25,12.94
		c-3.56,2.7-8.82,3.7-17.35,3.84c-2.84,0-10.95-0.14-20.76-0.71c-13.08-0.85-16.78,4.27-17.35,8.96c-0.14,1-0.14,1.99,0,2.84
		c6.12-4.69,14.79-8.11,24.6-4.98c17.35,5.4,22.33,5.97,31.29-1.14l0.85,1.99c-1,1.56-2.7,3.7-5.26,5.55h8.39V159l26.03-15.64h73.1
		c0,0,30.86,16.21,35.98,18.77c4.55,2.42,6.26,5.26,6.97,9.39c0.57,3.56-0.28,7.96-1.99,10.81c-1.14,1.71-9.53,15.5-13.94,22.9
		c12.37,13.51,20.76,32.28,20.76,53.19c0,19.06-6.97,43.52-29.87,61.72c10.1,3.27,16.5,8.82,21.48,15.93L414.13,359.68z M251,115.48
		c-10.24-2.28-16.07-1-21.9,4.69c2.84,1.42,6.54,2.13,10.52,1.85C245.45,121.6,249.01,118.19,251,115.48 M245.17,180.76l28.87-17.35
		c-5.69-2.84-11.95-4.55-19.48-4.69c-9.96-0.14-26.88,4.41-34.99,5.69C223.41,166.97,236.21,175.22,245.17,180.76 M374.31,182.61
		l3.98-5.69l-6.26-8.25l1-1.85l17.49,9.39l-3.84,11.52c2.84,1.42,5.4,2.99,8.82,5.4l11.24-18.49l-29.3-15.22h-64.57L260.53,191
		c9.81,6.83,18.92,14.22,25.32,21.62c14.08-20.48,38.68-33.42,63.15-33.42C357.24,179.2,366.49,180.05,374.31,182.61 M369.05,255.86
		c-0.28-9.67-1.56-18.35-3.13-26.03l-34.28-1.56c-2.28,10.38-3.84,20.62-4.55,29.87L369.05,255.86z M380.57,230.4
		c1.14,8.82,1.28,17.07,0.71,24.75l33.85-1.71c-0.85-7.68-3.13-14.93-6.4-21.62L380.57,230.4z M363.36,219.31
		c-3.56-12.23-7.82-20.76-9.96-24.75c-1.42-0.14-2.84-0.14-4.27-0.14c-2.42,0-4.84,0.28-7.11,0.57c-3.41,8.53-6.26,17.21-8.53,26.03
		L363.36,219.31z M372.74,198.83c2.56,6.83,4.41,13.37,5.83,19.77l20.76-1.14C392.09,209.21,382.98,202.81,372.74,198.83
		 M410.86,286.29c2.42-5.83,3.98-11.52,4.41-18.77L380,265.53c-1.56,9.81-4.27,18.49-7.11,25.46L410.86,286.29z M323.96,200.25
		c-11.8,5.26-19.91,12.52-27.16,22.76l24.18-1.28C321.69,211.06,323.11,203.95,323.96,200.25"/>
	<path class="st2" d="M279.16,411.59c9.81-1.56,19.2-9.24,19.2-20.76c0-10.38-4.41-21.9-35.13-21.9h-51.77v0.85
		c1.56,0.43,4.12,1.71,5.69,3.27c3.56,3.41,4.69,8.53,4.84,15.36v77.51h42.81c23.61,0,40.68-8.96,40.68-29.58
		C305.61,419.7,292.53,412.59,279.16,411.59 M257.12,378.17c10.95,0,18.35,2.42,18.35,14.08c0,12.52-9.96,15.93-21.33,15.93h-9.81
		v-30.01H257.12z M258.25,456.82h-13.8v-39.68h13.23c18.2,0,25.03,5.4,25.03,19.06C282.72,450.99,273.61,456.82,258.25,456.82"/>
	<path class="st2" d="M173.49,466.06h27.88l-35.7-45.65c14.36-3.84,25.03-11.66,25.03-25.88c0-16.64-9.96-25.46-36.12-25.46h-54.04
		v0.85c1.99,0.71,4.27,1.99,5.69,3.41c3.84,3.7,4.84,9.39,4.84,17.07v75.66h22.47v-42.95h8.11L173.49,466.06z M133.67,378.17h15.08
		c12.52,0,19.2,3.7,19.2,17.07c0,11.95-8.53,19.06-22.33,19.06h-11.95V378.17z"/>
	<path id="XMLID_2_" class="st2" d="M396.21,382.29c5.97,3.41,7.82,7.82,7.82,7.82c0.28,0.28,1,0.28,1,0.28l4.84-16.64
		c0,0-8.82-6.26-29.58-6.26c-31.57,0-55.18,15.93-55.18,50.63c0,39.11,28.16,49.35,52.91,49.35c23.04,0,32.14-7.4,32.14-7.4v-11.38
		c0,0-8.11,7.54-25.6,7.54c-14.36,0-35.7-6.54-36.12-38.83c-0.43-29.72,12.52-39.4,29.87-39.4
		C388.1,378.17,392.94,380.44,396.21,382.29"/>
</g>
</svg>
